# xmcd CD database file
#
# Track frame offsets:
#	150
#	20210
#	37602
#
# Disc length: 866 seconds
#
# Revision: 0
# Processed by: cddbd v1.5.1PL0 Copyright (c) Steve Scherf et al.
# Submitted via: CDex 1.51
#
DISCID=19036003
DTITLE=noodles - Booster
DYEAR=2000
DGENRE=Rock
TTITLE0=Booster
TTITLE1=サマーコーヒー
TTITLE2=メロウメタリカ
EXTD=YEAR: 2000
EXTT0=
EXTT1=
EXTT2=
PLAYORDER=
